<?xml version="1.0" encoding="UTF-8" standalone="no"?>
<!DOCTYPE svg PUBLIC "-//W3C//DTD SVG 1.1//EN"
 "http://www.w3.org/Graphics/SVG/1.1/DTD/svg11.dtd">
<!-- Generated by graphviz version 14.1.2 (0)
 -->
<!-- Title: arch Pages: 1 -->
<svg width="1027pt" height="351pt"
 viewBox="0.00 0.00 1027.00 351.00" xmlns="http://www.w3.org/2000/svg" xmlns:xlink="http://www.w3.org/1999/xlink">
<g id="graph0" class="graph" transform="scale(1 1) rotate(0) translate(8.64 342.64)">
<title>arch</title>
<polygon fill="white" stroke="none" points="-8.64,8.64 -8.64,-342.64 1017.88,-342.64 1017.88,8.64 -8.64,8.64"/>
<g id="clust1" class="cluster">
<title>cluster_py</title>
<path fill="none" stroke="#888888" stroke-dasharray="5,2" d="M20,-8C20,-8 989.24,-8 989.24,-8 995.24,-8 1001.24,-14 1001.24,-20 1001.24,-20 1001.24,-314 1001.24,-314 1001.24,-320 995.24,-326 989.24,-326 989.24,-326 20,-326 20,-326 14,-326 8,-320 8,-314 8,-314 8,-20 8,-20 8,-14 14,-8 20,-8"/>
<text xml:space="preserve" text-anchor="middle" x="91.75" y="-303" font-family="Helvetica,sans-Serif" font-size="20.00">Python process</text>
</g>
<g id="clust2" class="cluster">
<title>cluster_jvm</title>
<path fill="#fcf7ef" stroke="#b08d57" d="M570.12,-8C570.12,-8 989.24,-8 989.24,-8 995.24,-8 1001.24,-14 1001.24,-20 1001.24,-20 1001.24,-282 1001.24,-282 1001.24,-288 995.24,-294 989.24,-294 989.24,-294 570.12,-294 570.12,-294 564.12,-294 558.12,-288 558.12,-282 558.12,-282 558.12,-20 558.12,-20 558.12,-14 564.12,-8 570.12,-8"/>
<text xml:space="preserve" text-anchor="middle" x="717.62" y="-271" font-family="Helvetica,sans-Serif" font-size="20.00">bundled JRE — JVM, in&#45;process</text>
</g>
<!-- code -->
<g id="node1" class="node">
<title>code</title>
<path fill="#f6f6f6" stroke="#888888" d="M206.06,-170.52C206.06,-170.52 20,-170.52 20,-170.52 14,-170.52 8,-164.52 8,-158.52 8,-158.52 8,-111.48 8,-111.48 8,-105.48 14,-99.48 20,-99.48 20,-99.48 206.06,-99.48 206.06,-99.48 212.06,-99.48 218.06,-105.48 218.06,-111.48 218.06,-111.48 218.06,-158.52 218.06,-158.52 218.06,-164.52 212.06,-170.52 206.06,-170.52"/>
<text xml:space="preserve" text-anchor="middle" x="113.03" y="-140" font-family="Helvetica,sans-Serif" font-size="20.00">your Python code</text>
<text xml:space="preserve" text-anchor="middle" x="113.03" y="-116" font-family="Helvetica,sans-Serif" font-size="20.00">(numpy · pandas)</text>
</g>
<!-- api -->
<g id="node2" class="node">
<title>api</title>
<path fill="#eef3fb" stroke="#33557a" d="M517.12,-170.52C517.12,-170.52 259.06,-170.52 259.06,-170.52 253.06,-170.52 247.06,-164.52 247.06,-158.52 247.06,-158.52 247.06,-111.48 247.06,-111.48 247.06,-105.48 253.06,-99.48 259.06,-99.48 259.06,-99.48 517.12,-99.48 517.12,-99.48 523.12,-99.48 529.12,-105.48 529.12,-111.48 529.12,-111.48 529.12,-158.52 529.12,-158.52 529.12,-164.52 523.12,-170.52 517.12,-170.52"/>
<text xml:space="preserve" text-anchor="middle" x="388.09" y="-140" font-family="Helvetica,sans-Serif" font-size="20.00">arcadedb_embedded API</text>
<text xml:space="preserve" text-anchor="middle" x="388.09" y="-116" font-family="Helvetica,sans-Serif" font-size="20.00">(JPype in&#45;process bridge)</text>
</g>
<!-- code&#45;&gt;api -->
<g id="edge1" class="edge">
<title>code&#45;&gt;api</title>
<path fill="none" stroke="#33557a" stroke-width="2.2" d="M218.43,-135C223.54,-135 228.7,-135 233.91,-135"/>
<polygon fill="#33557a" stroke="#33557a" stroke-width="2.2" points="233.55,-138.5 243.55,-135 233.55,-131.5 233.55,-138.5"/>
</g>
<!-- eng -->
<g id="node3" class="node">
<title>eng</title>
<path fill="#e6edfb" stroke="#33557a" d="M777.18,-170.52C777.18,-170.52 570.12,-170.52 570.12,-170.52 564.12,-170.52 558.12,-164.52 558.12,-158.52 558.12,-158.52 558.12,-111.48 558.12,-111.48 558.12,-105.48 564.12,-99.48 570.12,-99.48 570.12,-99.48 777.18,-99.48 777.18,-99.48 783.18,-99.48 789.18,-105.48 789.18,-111.48 789.18,-111.48 789.18,-158.52 789.18,-158.52 789.18,-164.52 783.18,-170.52 777.18,-170.52"/>
<text xml:space="preserve" text-anchor="middle" x="673.65" y="-140" font-family="Helvetica,sans-Serif" font-size="20.00">ArcadeDB engine</text>
<text xml:space="preserve" text-anchor="middle" x="673.65" y="-116" font-family="Helvetica,sans-Serif" font-size="20.00">ACID · transactional</text>
</g>
<!-- api&#45;&gt;eng -->
<g id="edge2" class="edge">
<title>api&#45;&gt;eng</title>
<path fill="none" stroke="#33557a" stroke-width="2.2" d="M529.21,-135C534.47,-135 539.74,-135 544.98,-135"/>
<polygon fill="#33557a" stroke="#33557a" stroke-width="2.2" points="544.61,-138.5 554.61,-135 544.61,-131.5 544.61,-138.5"/>
</g>
<!-- doc -->
<g id="node4" class="node">
<title>doc</title>
<path fill="#eafbea" stroke="#2e7d32" d="M971.99,-79.52C971.99,-79.52 847.43,-79.52 847.43,-79.52 841.43,-79.52 835.43,-73.52 835.43,-67.52 835.43,-67.52 835.43,-20.48 835.43,-20.48 835.43,-14.48 841.43,-8.48 847.43,-8.48 847.43,-8.48 971.99,-8.48 971.99,-8.48 977.99,-8.48 983.99,-14.48 983.99,-20.48 983.99,-20.48 983.99,-67.52 983.99,-67.52 983.99,-73.52 977.99,-79.52 971.99,-79.52"/>
<text xml:space="preserve" text-anchor="middle" x="909.71" y="-49" font-family="Helvetica,sans-Serif" font-size="20.00">Documents</text>
<text xml:space="preserve" text-anchor="middle" x="909.71" y="-25" font-family="Helvetica,sans-Serif" font-size="20.00">(SQL)</text>
</g>
<!-- eng&#45;&gt;doc -->
<g id="edge3" class="edge">
<title>eng&#45;&gt;doc</title>
<path fill="none" stroke="#33557a" stroke-width="2.2" d="M767.16,-99.03C785.53,-91.89 804.75,-84.42 822.9,-77.36"/>
<polygon fill="#33557a" stroke="#33557a" stroke-width="2.2" points="824.1,-80.65 832.16,-73.76 821.57,-74.13 824.1,-80.65"/>
</g>
<!-- gr -->
<g id="node5" class="node">
<title>gr</title>
<path fill="#eafbea" stroke="#2e7d32" d="M989.24,-170.52C989.24,-170.52 830.18,-170.52 830.18,-170.52 824.18,-170.52 818.18,-164.52 818.18,-158.52 818.18,-158.52 818.18,-111.48 818.18,-111.48 818.18,-105.48 824.18,-99.48 830.18,-99.48 830.18,-99.48 989.24,-99.48 989.24,-99.48 995.24,-99.48 1001.24,-105.48 1001.24,-111.48 1001.24,-111.48 1001.24,-158.52 1001.24,-158.52 1001.24,-164.52 995.24,-170.52 989.24,-170.52"/>
<text xml:space="preserve" text-anchor="middle" x="909.71" y="-140" font-family="Helvetica,sans-Serif" font-size="20.00">Property graph</text>
<text xml:space="preserve" text-anchor="middle" x="909.71" y="-116" font-family="Helvetica,sans-Serif" font-size="20.00">(Cypher · GAV)</text>
</g>
<!-- eng&#45;&gt;gr -->
<g id="edge4" class="edge">
<title>eng&#45;&gt;gr</title>
<path fill="none" stroke="#33557a" stroke-width="2.2" d="M789.62,-135C794.66,-135 799.7,-135 804.71,-135"/>
<polygon fill="#33557a" stroke="#33557a" stroke-width="2.2" points="804.54,-138.5 814.54,-135 804.54,-131.5 804.54,-138.5"/>
</g>
<!-- vec -->
<g id="node6" class="node">
<title>vec</title>
<path fill="#eafbea" stroke="#2e7d32" d="M953.62,-261.52C953.62,-261.52 865.81,-261.52 865.81,-261.52 859.81,-261.52 853.81,-255.52 853.81,-249.52 853.81,-249.52 853.81,-202.48 853.81,-202.48 853.81,-196.48 859.81,-190.48 865.81,-190.48 865.81,-190.48 953.62,-190.48 953.62,-190.48 959.62,-190.48 965.62,-196.48 965.62,-202.48 965.62,-202.48 965.62,-249.52 965.62,-249.52 965.62,-255.52 959.62,-261.52 953.62,-261.52"/>
<text xml:space="preserve" text-anchor="middle" x="909.71" y="-231" font-family="Helvetica,sans-Serif" font-size="20.00">Vectors</text>
<text xml:space="preserve" text-anchor="middle" x="909.71" y="-207" font-family="Helvetica,sans-Serif" font-size="20.00">(HNSW)</text>
</g>
<!-- eng&#45;&gt;vec -->
<g id="edge5" class="edge">
<title>eng&#45;&gt;vec</title>
<path fill="none" stroke="#33557a" stroke-width="2.2" d="M767.16,-170.97C791.96,-180.61 818.3,-190.85 841.45,-199.85"/>
<polygon fill="#33557a" stroke="#33557a" stroke-width="2.2" points="839.91,-203 850.49,-203.37 842.44,-196.48 839.91,-203"/>
</g>
</g>
</svg>
