<?xml version="1.0" encoding="UTF-8" standalone="no"?>
<!DOCTYPE svg PUBLIC "-//W3C//DTD SVG 1.1//EN"
 "http://www.w3.org/Graphics/SVG/1.1/DTD/svg11.dtd">
<!-- Generated by graphviz version 14.1.2 (0)
 -->
<!-- Title: arch Pages: 1 -->
<svg width="777pt" height="277pt"
 viewBox="0.00 0.00 777.00 277.00" xmlns="http://www.w3.org/2000/svg" xmlns:xlink="http://www.w3.org/1999/xlink">
<g id="graph0" class="graph" transform="scale(1 1) rotate(0) translate(4 273.25)">
<title>arch</title>
<polygon fill="white" stroke="none" points="-4,4 -4,-273.25 773.45,-273.25 773.45,4 -4,4"/>
<text xml:space="preserve" text-anchor="middle" x="384.72" y="-253.85" font-family="Helvetica,sans-Serif" font-size="12.00">A single OS process — pip install arcadedb&#45;embedded (no server, no Java install)</text>
<g id="clust1" class="cluster">
<title>cluster_py</title>
<path fill="none" stroke="#888888" stroke-dasharray="5,2" d="M20,-8C20,-8 749.45,-8 749.45,-8 755.45,-8 761.45,-14 761.45,-20 761.45,-20 761.45,-227 761.45,-227 761.45,-233 755.45,-239 749.45,-239 749.45,-239 20,-239 20,-239 14,-239 8,-233 8,-227 8,-227 8,-20 8,-20 8,-14 14,-8 20,-8"/>
<text xml:space="preserve" text-anchor="middle" x="58.38" y="-224.55" font-family="Helvetica,sans-Serif" font-size="11.00">Python process</text>
</g>
<g id="clust2" class="cluster">
<title>cluster_jvm</title>
<path fill="#fcf7ef" stroke="#b08d57" d="M468.62,-16C468.62,-16 741.45,-16 741.45,-16 747.45,-16 753.45,-22 753.45,-28 753.45,-28 753.45,-197 753.45,-197 753.45,-203 747.45,-209 741.45,-209 741.45,-209 468.62,-209 468.62,-209 462.62,-209 456.62,-203 456.62,-197 456.62,-197 456.62,-28 456.62,-28 456.62,-22 462.62,-16 468.62,-16"/>
<text xml:space="preserve" text-anchor="middle" x="548.24" y="-194.55" font-family="Helvetica,sans-Serif" font-size="11.00">bundled JRE — JVM, in&#45;process</text>
</g>
<!-- code -->
<g id="node1" class="node">
<title>code</title>
<path fill="#f6f6f6" stroke="#888888" d="M112.54,-121.95C112.54,-121.95 28,-121.95 28,-121.95 22,-121.95 16,-115.95 16,-109.95 16,-109.95 16,-94.05 16,-94.05 16,-88.05 22,-82.05 28,-82.05 28,-82.05 112.54,-82.05 112.54,-82.05 118.54,-82.05 124.54,-88.05 124.54,-94.05 124.54,-94.05 124.54,-109.95 124.54,-109.95 124.54,-115.95 118.54,-121.95 112.54,-121.95"/>
<text xml:space="preserve" text-anchor="middle" x="70.27" y="-105.25" font-family="Helvetica,sans-Serif" font-size="10.00">your Python code</text>
<text xml:space="preserve" text-anchor="middle" x="70.27" y="-92.5" font-family="Helvetica,sans-Serif" font-size="10.00">(numpy · pandas)</text>
</g>
<!-- api -->
<g id="node2" class="node">
<title>api</title>
<path fill="#eef3fb" stroke="#33557a" d="M273.58,-121.95C273.58,-121.95 172.54,-121.95 172.54,-121.95 166.54,-121.95 160.54,-115.95 160.54,-109.95 160.54,-109.95 160.54,-94.05 160.54,-94.05 160.54,-88.05 166.54,-82.05 172.54,-82.05 172.54,-82.05 273.58,-82.05 273.58,-82.05 279.58,-82.05 285.58,-88.05 285.58,-94.05 285.58,-94.05 285.58,-109.95 285.58,-109.95 285.58,-115.95 279.58,-121.95 273.58,-121.95"/>
<text xml:space="preserve" text-anchor="middle" x="223.06" y="-105.25" font-family="Helvetica,sans-Serif" font-size="10.00">arcadedb_embedded</text>
<text xml:space="preserve" text-anchor="middle" x="223.06" y="-92.5" font-family="Helvetica,sans-Serif" font-size="10.00">Pythonic API</text>
</g>
<!-- code&#45;&gt;api -->
<g id="edge1" class="edge">
<title>code&#45;&gt;api</title>
<path fill="none" stroke="#33557a" stroke-width="1.4" d="M124.86,-102C132.45,-102 140.36,-102 148.25,-102"/>
<polygon fill="#33557a" stroke="#33557a" stroke-width="1.4" points="148.04,-105.5 158.04,-102 148.04,-98.5 148.04,-105.5"/>
</g>
<!-- jp -->
<g id="node3" class="node">
<title>jp</title>
<path fill="#eef3fb" stroke="#33557a" d="M416.62,-121.95C416.62,-121.95 333.58,-121.95 333.58,-121.95 327.58,-121.95 321.58,-115.95 321.58,-109.95 321.58,-109.95 321.58,-94.05 321.58,-94.05 321.58,-88.05 327.58,-82.05 333.58,-82.05 333.58,-82.05 416.62,-82.05 416.62,-82.05 422.62,-82.05 428.62,-88.05 428.62,-94.05 428.62,-94.05 428.62,-109.95 428.62,-109.95 428.62,-115.95 422.62,-121.95 416.62,-121.95"/>
<text xml:space="preserve" text-anchor="middle" x="375.1" y="-105.25" font-family="Helvetica,sans-Serif" font-size="10.00">JPype</text>
<text xml:space="preserve" text-anchor="middle" x="375.1" y="-92.5" font-family="Helvetica,sans-Serif" font-size="10.00">in&#45;process bridge</text>
</g>
<!-- api&#45;&gt;jp -->
<g id="edge2" class="edge">
<title>api&#45;&gt;jp</title>
<path fill="none" stroke="#33557a" stroke-width="1.4" d="M285.95,-102C293.69,-102 301.61,-102 309.39,-102"/>
<polygon fill="#33557a" stroke="#33557a" stroke-width="1.4" points="309.32,-105.5 319.32,-102 309.32,-98.5 309.32,-105.5"/>
</g>
<!-- eng -->
<g id="node4" class="node">
<title>eng</title>
<path fill="#e6edfb" stroke="#33557a" d="M559.66,-121.95C559.66,-121.95 476.62,-121.95 476.62,-121.95 470.62,-121.95 464.62,-115.95 464.62,-109.95 464.62,-109.95 464.62,-94.05 464.62,-94.05 464.62,-88.05 470.62,-82.05 476.62,-82.05 476.62,-82.05 559.66,-82.05 559.66,-82.05 565.66,-82.05 571.66,-88.05 571.66,-94.05 571.66,-94.05 571.66,-109.95 571.66,-109.95 571.66,-115.95 565.66,-121.95 559.66,-121.95"/>
<text xml:space="preserve" text-anchor="middle" x="518.14" y="-105.25" font-family="Helvetica,sans-Serif" font-size="10.00">ArcadeDB engine</text>
<text xml:space="preserve" text-anchor="middle" x="518.14" y="-92.5" font-family="Helvetica,sans-Serif" font-size="10.00">ACID · OLTP&#45;first</text>
</g>
<!-- jp&#45;&gt;eng -->
<g id="edge3" class="edge">
<title>jp&#45;&gt;eng</title>
<path fill="none" stroke="#33557a" stroke-width="1.4" d="M429.02,-102C436.61,-102 444.49,-102 452.28,-102"/>
<polygon fill="#33557a" stroke="#33557a" stroke-width="1.4" points="452.27,-105.5 462.27,-102 452.27,-98.5 452.27,-105.5"/>
</g>
<!-- doc -->
<g id="node5" class="node">
<title>doc</title>
<path fill="#eafbea" stroke="#2e7d32" d="M720.32,-63.95C720.32,-63.95 632.78,-63.95 632.78,-63.95 626.78,-63.95 620.78,-57.95 620.78,-51.95 620.78,-51.95 620.78,-36.05 620.78,-36.05 620.78,-30.05 626.78,-24.05 632.78,-24.05 632.78,-24.05 720.32,-24.05 720.32,-24.05 726.32,-24.05 732.32,-30.05 732.32,-36.05 732.32,-36.05 732.32,-51.95 732.32,-51.95 732.32,-57.95 726.32,-63.95 720.32,-63.95"/>
<text xml:space="preserve" text-anchor="middle" x="676.55" y="-47.25" font-family="Helvetica,sans-Serif" font-size="10.00">Documents / OLTP</text>
<text xml:space="preserve" text-anchor="middle" x="676.55" y="-34.5" font-family="Helvetica,sans-Serif" font-size="10.00">(SQL)</text>
</g>
<!-- eng&#45;&gt;doc -->
<g id="edge4" class="edge">
<title>eng&#45;&gt;doc</title>
<path fill="none" stroke="#33557a" stroke-width="1.4" d="M572.09,-82.36C584.04,-77.94 596.86,-73.18 609.27,-68.58"/>
<polygon fill="#33557a" stroke="#33557a" stroke-width="1.4" points="610.37,-71.9 618.53,-65.14 607.94,-65.34 610.37,-71.9"/>
</g>
<!-- gr -->
<g id="node6" class="node">
<title>gr</title>
<path fill="#eafbea" stroke="#2e7d32" d="M733.45,-121.95C733.45,-121.95 619.66,-121.95 619.66,-121.95 613.66,-121.95 607.66,-115.95 607.66,-109.95 607.66,-109.95 607.66,-94.05 607.66,-94.05 607.66,-88.05 613.66,-82.05 619.66,-82.05 619.66,-82.05 733.45,-82.05 733.45,-82.05 739.45,-82.05 745.45,-88.05 745.45,-94.05 745.45,-94.05 745.45,-109.95 745.45,-109.95 745.45,-115.95 739.45,-121.95 733.45,-121.95"/>
<text xml:space="preserve" text-anchor="middle" x="676.55" y="-105.25" font-family="Helvetica,sans-Serif" font-size="10.00">Property graph</text>
<text xml:space="preserve" text-anchor="middle" x="676.55" y="-92.5" font-family="Helvetica,sans-Serif" font-size="10.00">(Cypher · MATCH · GAV)</text>
</g>
<!-- eng&#45;&gt;gr -->
<g id="edge5" class="edge">
<title>eng&#45;&gt;gr</title>
<path fill="none" stroke="#33557a" stroke-width="1.4" d="M572.09,-102C579.63,-102 587.51,-102 595.42,-102"/>
<polygon fill="#33557a" stroke="#33557a" stroke-width="1.4" points="595.29,-105.5 605.29,-102 595.29,-98.5 595.29,-105.5"/>
</g>
<!-- vec -->
<g id="node7" class="node">
<title>vec</title>
<path fill="#eafbea" stroke="#2e7d32" d="M695.2,-179.95C695.2,-179.95 657.91,-179.95 657.91,-179.95 651.91,-179.95 645.91,-173.95 645.91,-167.95 645.91,-167.95 645.91,-152.05 645.91,-152.05 645.91,-146.05 651.91,-140.05 657.91,-140.05 657.91,-140.05 695.2,-140.05 695.2,-140.05 701.2,-140.05 707.2,-146.05 707.2,-152.05 707.2,-152.05 707.2,-167.95 707.2,-167.95 707.2,-173.95 701.2,-179.95 695.2,-179.95"/>
<text xml:space="preserve" text-anchor="middle" x="676.55" y="-163.25" font-family="Helvetica,sans-Serif" font-size="10.00">Vectors</text>
<text xml:space="preserve" text-anchor="middle" x="676.55" y="-150.5" font-family="Helvetica,sans-Serif" font-size="10.00">(HNSW)</text>
</g>
<!-- eng&#45;&gt;vec -->
<g id="edge6" class="edge">
<title>eng&#45;&gt;vec</title>
<path fill="none" stroke="#33557a" stroke-width="1.4" d="M572.09,-121.64C592.35,-129.15 615.14,-137.6 634.16,-144.65"/>
<polygon fill="#33557a" stroke="#33557a" stroke-width="1.4" points="632.89,-147.91 643.48,-148.11 635.32,-141.35 632.89,-147.91"/>
</g>
</g>
</svg>
