<?xml version="1.0" encoding="UTF-8" standalone="no"?>
<!DOCTYPE svg PUBLIC "-//W3C//DTD SVG 1.1//EN"
 "http://www.w3.org/Graphics/SVG/1.1/DTD/svg11.dtd">
<!-- Generated by graphviz version 14.1.2 (0)
 -->
<!-- Title: hybrid Pages: 1 -->
<svg width="786pt" height="99pt"
 viewBox="0.00 0.00 786.00 99.00" xmlns="http://www.w3.org/2000/svg" xmlns:xlink="http://www.w3.org/1999/xlink">
<g id="graph0" class="graph" transform="scale(1 1) rotate(0) translate(4 94.53)">
<title>hybrid</title>
<polygon fill="white" stroke="none" points="-4,4 -4,-94.53 781.6,-94.53 781.6,4 -4,4"/>
<text xml:space="preserve" text-anchor="middle" x="388.8" y="-75.13" font-family="Helvetica,sans-Serif" font-size="12.00">One in&#45;process ArcadeDB &#160;(pip install arcadedb&#45;embedded — no server, no ETL)</text>
<!-- q -->
<g id="node1" class="node">
<title>q</title>
<polygon fill="#f6f6f6" stroke="#888888" points="88.17,-55.53 0,-55.53 0,-12.75 94.17,-12.75 94.17,-49.53 88.17,-55.53"/>
<polyline fill="none" stroke="#888888" points="88.17,-55.53 88.17,-49.53"/>
<polyline fill="none" stroke="#888888" points="94.17,-49.53 88.17,-49.53"/>
<text xml:space="preserve" text-anchor="middle" x="47.09" y="-37.39" font-family="Helvetica,sans-Serif" font-size="10.00">seed question</text>
<text xml:space="preserve" text-anchor="middle" x="47.09" y="-24.64" font-family="Helvetica,sans-Serif" font-size="10.00">(embedding)</text>
</g>
<!-- v -->
<g id="node2" class="node">
<title>v</title>
<path fill="#eef3fb" stroke="#33557a" d="M260.34,-68.28C260.34,-68.28 142.17,-68.28 142.17,-68.28 136.17,-68.28 130.17,-62.28 130.17,-56.28 130.17,-56.28 130.17,-12 130.17,-12 130.17,-6 136.17,0 142.17,0 142.17,0 260.34,0 260.34,0 266.34,0 272.34,-6 272.34,-12 272.34,-12 272.34,-56.28 272.34,-56.28 272.34,-62.28 266.34,-68.28 260.34,-68.28"/>
<text xml:space="preserve" text-anchor="middle" x="201.25" y="-50.14" font-family="Helvetica,sans-Serif" font-size="10.00">① VECTOR</text>
<text xml:space="preserve" text-anchor="middle" x="201.25" y="-37.39" font-family="Helvetica,sans-Serif" font-size="10.00">vectorNeighbors()</text>
<text xml:space="preserve" text-anchor="middle" x="201.25" y="-24.64" font-family="Helvetica,sans-Serif" font-size="10.00">→ 200 similar questions</text>
<text xml:space="preserve" text-anchor="middle" x="201.25" y="-11.89" font-family="Helvetica,sans-Serif" font-size="10.00">33 ms</text>
</g>
<!-- q&#45;&gt;v -->
<g id="edge1" class="edge">
<title>q&#45;&gt;v</title>
<path fill="none" stroke="#33557a" stroke-width="1.4" d="M94.57,-34.14C101.94,-34.14 109.75,-34.14 117.65,-34.14"/>
<polygon fill="#33557a" stroke="#33557a" stroke-width="1.4" points="117.56,-37.64 127.56,-34.14 117.56,-30.64 117.56,-37.64"/>
</g>
<!-- s -->
<g id="node3" class="node">
<title>s</title>
<path fill="#eef3fb" stroke="#33557a" d="M398.01,-68.28C398.01,-68.28 320.34,-68.28 320.34,-68.28 314.34,-68.28 308.34,-62.28 308.34,-56.28 308.34,-56.28 308.34,-12 308.34,-12 308.34,-6 314.34,0 320.34,0 320.34,0 398.01,0 398.01,0 404.01,0 410.01,-6 410.01,-12 410.01,-12 410.01,-56.28 410.01,-56.28 410.01,-62.28 404.01,-68.28 398.01,-68.28"/>
<text xml:space="preserve" text-anchor="middle" x="359.17" y="-50.14" font-family="Helvetica,sans-Serif" font-size="10.00">② SQL</text>
<text xml:space="preserve" text-anchor="middle" x="359.17" y="-37.39" font-family="Helvetica,sans-Serif" font-size="10.00">filter &#160;Score ≥ 1</text>
<text xml:space="preserve" text-anchor="middle" x="359.17" y="-24.64" font-family="Helvetica,sans-Serif" font-size="10.00">→ 50 questions</text>
<text xml:space="preserve" text-anchor="middle" x="359.17" y="-11.89" font-family="Helvetica,sans-Serif" font-size="10.00">48 ms</text>
</g>
<!-- v&#45;&gt;s -->
<g id="edge2" class="edge">
<title>v&#45;&gt;s</title>
<path fill="none" stroke="#33557a" stroke-width="1.4" d="M272.46,-34.14C280.31,-34.14 288.27,-34.14 296.01,-34.14"/>
<polygon fill="#33557a" stroke="#33557a" stroke-width="1.4" points="295.83,-37.64 305.83,-34.14 295.83,-30.64 295.83,-37.64"/>
</g>
<!-- g -->
<g id="node4" class="node">
<title>g</title>
<path fill="#eef3fb" stroke="#33557a" d="M607.68,-61.91C607.68,-61.91 458.01,-61.91 458.01,-61.91 452.01,-61.91 446.01,-55.91 446.01,-49.91 446.01,-49.91 446.01,-18.38 446.01,-18.38 446.01,-12.38 452.01,-6.38 458.01,-6.38 458.01,-6.38 607.68,-6.38 607.68,-6.38 613.68,-6.38 619.68,-12.38 619.68,-18.38 619.68,-18.38 619.68,-49.91 619.68,-49.91 619.68,-55.91 613.68,-61.91 607.68,-61.91"/>
<text xml:space="preserve" text-anchor="middle" x="532.85" y="-43.77" font-family="Helvetica,sans-Serif" font-size="10.00">③ GRAPH &#160;(MATCH)</text>
<text xml:space="preserve" text-anchor="middle" x="532.85" y="-31.02" font-family="Helvetica,sans-Serif" font-size="10.00">answers + authors&#39; reputation</text>
<text xml:space="preserve" text-anchor="middle" x="532.85" y="-18.27" font-family="Helvetica,sans-Serif" font-size="10.00">→ 10 results · 101 ms</text>
</g>
<!-- s&#45;&gt;g -->
<g id="edge3" class="edge">
<title>s&#45;&gt;g</title>
<path fill="none" stroke="#33557a" stroke-width="1.4" d="M410.29,-34.14C417.8,-34.14 425.76,-34.14 433.87,-34.14"/>
<polygon fill="#33557a" stroke="#33557a" stroke-width="1.4" points="433.7,-37.64 443.7,-34.14 433.7,-30.64 433.7,-37.64"/>
</g>
<!-- r -->
<g id="node5" class="node">
<title>r</title>
<path fill="#eafbea" stroke="#2e7d32" d="M765.6,-55.53C765.6,-55.53 667.68,-55.53 667.68,-55.53 661.68,-55.53 655.68,-49.53 655.68,-43.53 655.68,-43.53 655.68,-24.75 655.68,-24.75 655.68,-18.75 661.68,-12.75 667.68,-12.75 667.68,-12.75 765.6,-12.75 765.6,-12.75 771.6,-12.75 777.6,-18.75 777.6,-24.75 777.6,-24.75 777.6,-43.53 777.6,-43.53 777.6,-49.53 771.6,-55.53 765.6,-55.53"/>
<text xml:space="preserve" text-anchor="middle" x="716.64" y="-37.39" font-family="Helvetica,sans-Serif" font-size="10.00">ranked answers</text>
<text xml:space="preserve" text-anchor="middle" x="716.64" y="-24.64" font-family="Helvetica,sans-Serif" font-size="10.00">+ author reputation</text>
</g>
<!-- g&#45;&gt;r -->
<g id="edge4" class="edge">
<title>g&#45;&gt;r</title>
<path fill="none" stroke="#33557a" stroke-width="1.4" d="M619.95,-34.14C627.78,-34.14 635.66,-34.14 643.35,-34.14"/>
<polygon fill="#33557a" stroke="#33557a" stroke-width="1.4" points="643.13,-37.64 653.13,-34.14 643.13,-30.64 643.13,-37.64"/>
</g>
</g>
</svg>
