<?xml version="1.0" encoding="UTF-8" standalone="no"?>
<!DOCTYPE svg PUBLIC "-//W3C//DTD SVG 1.1//EN"
 "http://www.w3.org/Graphics/SVG/1.1/DTD/svg11.dtd">
<!-- Generated by graphviz version 14.1.2 (0)
 -->
<!-- Title: hybrid Pages: 1 -->
<svg width="398pt" height="393pt"
 viewBox="0.00 0.00 398.00 393.00" xmlns="http://www.w3.org/2000/svg" xmlns:xlink="http://www.w3.org/1999/xlink">
<g id="graph0" class="graph" transform="scale(1 1) rotate(0) translate(8.64 384.64)">
<title>hybrid</title>
<polygon fill="white" stroke="none" points="-8.64,8.64 -8.64,-384.64 388.95,-384.64 388.95,8.64 -8.64,8.64"/>
<!-- q -->
<g id="node1" class="node">
<title>q</title>
<polygon fill="#f6f6f6" stroke="#888888" points="335.69,-376 38.62,-376 38.62,-331.9 341.69,-331.9 341.69,-370 335.69,-376"/>
<polyline fill="none" stroke="#888888" points="335.69,-376 335.69,-370"/>
<polyline fill="none" stroke="#888888" points="341.69,-370 335.69,-370"/>
<text xml:space="preserve" text-anchor="middle" x="190.16" y="-347.15" font-family="Helvetica,sans-Serif" font-size="19.00">seed question &#160;(embedding)</text>
</g>
<!-- v -->
<g id="node2" class="node">
<title>v</title>
<path fill="#eef3fb" stroke="#33557a" d="M367.94,-309.9C367.94,-309.9 12.38,-309.9 12.38,-309.9 6.38,-309.9 0.38,-303.9 0.38,-297.9 0.38,-297.9 0.38,-255.3 0.38,-255.3 0.38,-249.3 6.38,-243.3 12.38,-243.3 12.38,-243.3 367.94,-243.3 367.94,-243.3 373.94,-243.3 379.94,-249.3 379.94,-255.3 379.94,-255.3 379.94,-297.9 379.94,-297.9 379.94,-303.9 373.94,-309.9 367.94,-309.9"/>
<text xml:space="preserve" text-anchor="middle" x="190.16" y="-281.05" font-family="Helvetica,sans-Serif" font-size="19.00">① VECTOR</text>
<text xml:space="preserve" text-anchor="middle" x="190.16" y="-258.55" font-family="Helvetica,sans-Serif" font-size="19.00">vectorNeighbors(): similar questions</text>
</g>
<!-- q&#45;&gt;v -->
<g id="edge1" class="edge">
<title>q&#45;&gt;v</title>
<path fill="none" stroke="#33557a" stroke-width="2" d="M190.16,-331.56C190.16,-328.87 190.16,-326.05 190.16,-323.16"/>
<polygon fill="#33557a" stroke="#33557a" stroke-width="2" points="193.66,-323.33 190.16,-313.33 186.66,-323.33 193.66,-323.33"/>
</g>
<!-- s -->
<g id="node3" class="node">
<title>s</title>
<path fill="#eef3fb" stroke="#33557a" d="M306.06,-221.3C306.06,-221.3 74.25,-221.3 74.25,-221.3 68.25,-221.3 62.25,-215.3 62.25,-209.3 62.25,-209.3 62.25,-166.7 62.25,-166.7 62.25,-160.7 68.25,-154.7 74.25,-154.7 74.25,-154.7 306.06,-154.7 306.06,-154.7 312.06,-154.7 318.06,-160.7 318.06,-166.7 318.06,-166.7 318.06,-209.3 318.06,-209.3 318.06,-215.3 312.06,-221.3 306.06,-221.3"/>
<text xml:space="preserve" text-anchor="middle" x="190.16" y="-192.45" font-family="Helvetica,sans-Serif" font-size="19.00">② SQL</text>
<text xml:space="preserve" text-anchor="middle" x="190.16" y="-169.95" font-family="Helvetica,sans-Serif" font-size="19.00">filter and rank by score</text>
</g>
<!-- v&#45;&gt;s -->
<g id="edge2" class="edge">
<title>v&#45;&gt;s</title>
<path fill="none" stroke="#33557a" stroke-width="2" d="M190.16,-242.86C190.16,-240.17 190.16,-237.41 190.16,-234.65"/>
<polygon fill="#33557a" stroke="#33557a" stroke-width="2" points="193.66,-234.81 190.16,-224.81 186.66,-234.81 193.66,-234.81"/>
</g>
<!-- g -->
<g id="node4" class="node">
<title>g</title>
<path fill="#eef3fb" stroke="#33557a" d="M352.94,-132.7C352.94,-132.7 27.38,-132.7 27.38,-132.7 21.38,-132.7 15.38,-126.7 15.38,-120.7 15.38,-120.7 15.38,-78.1 15.38,-78.1 15.38,-72.1 21.38,-66.1 27.38,-66.1 27.38,-66.1 352.94,-66.1 352.94,-66.1 358.94,-66.1 364.94,-72.1 364.94,-78.1 364.94,-78.1 364.94,-120.7 364.94,-120.7 364.94,-126.7 358.94,-132.7 352.94,-132.7"/>
<text xml:space="preserve" text-anchor="middle" x="190.16" y="-103.85" font-family="Helvetica,sans-Serif" font-size="19.00">③ GRAPH</text>
<text xml:space="preserve" text-anchor="middle" x="190.16" y="-81.35" font-family="Helvetica,sans-Serif" font-size="19.00">answers + answerers&#39; reputation</text>
</g>
<!-- s&#45;&gt;g -->
<g id="edge3" class="edge">
<title>s&#45;&gt;g</title>
<path fill="none" stroke="#33557a" stroke-width="2" d="M190.16,-154.26C190.16,-151.57 190.16,-148.81 190.16,-146.05"/>
<polygon fill="#33557a" stroke="#33557a" stroke-width="2" points="193.66,-146.21 190.16,-136.21 186.66,-146.21 193.66,-146.21"/>
</g>
<!-- r -->
<g id="node5" class="node">
<title>r</title>
<path fill="#eafbea" stroke="#2e7d32" d="M368.31,-44.1C368.31,-44.1 12,-44.1 12,-44.1 6,-44.1 0,-38.1 0,-32.1 0,-32.1 0,-12 0,-12 0,-6 6,0 12,0 12,0 368.31,0 368.31,0 374.31,0 380.31,-6 380.31,-12 380.31,-12 380.31,-32.1 380.31,-32.1 380.31,-38.1 374.31,-44.1 368.31,-44.1"/>
<text xml:space="preserve" text-anchor="middle" x="190.16" y="-15.25" font-family="Helvetica,sans-Serif" font-size="19.00">ranked answers + author reputation</text>
</g>
<!-- g&#45;&gt;r -->
<g id="edge4" class="edge">
<title>g&#45;&gt;r</title>
<path fill="none" stroke="#33557a" stroke-width="2" d="M190.16,-66.01C190.16,-63.03 190.16,-60 190.16,-57"/>
<polygon fill="#33557a" stroke="#33557a" stroke-width="2" points="193.66,-57.34 190.16,-47.34 186.66,-57.34 193.66,-57.34"/>
</g>
</g>
</svg>
